<?xml version="1.0" encoding="utf-8"?>
<!-- Generator: Adobe Illustrator 26.1.0, SVG Export Plug-In . SVG Version: 6.00 Build 0)  -->
<svg version="1.1" id="Layer_1" xmlns="http://www.w3.org/2000/svg" xmlns:xlink="http://www.w3.org/1999/xlink" x="0px" y="0px"
	 viewBox="0 0 595.3 281.3" style="enable-background:new 0 0 595.3 281.3;" xml:space="preserve">
<style type="text/css">
	.st0{fill:#CB3230;stroke:#FFFFFF;stroke-width:5;stroke-miterlimit:10;}
	.st1{fill:#CB3331;stroke:#FFFFFF;stroke-width:5;stroke-miterlimit:10;}
	.st2{fill:#232323;}
	.st3{fill:#242323;}
	.st4{fill:#232222;}
	.st5{fill:#252424;}
</style>
<path class="st0" d="M377.8,129.7c-1.5,5.7-2.9,11.3-4.6,16.8c-1.8,6.1-3.8,12.1-6.7,17.7c-2,3.9-4.4,7.5-7.5,10.5
	c-3.2,3.1-6.9,5.5-11.1,7.1c-5,2-10.2,2.9-15.5,3.5c-5.7,0.6-11.3,0.7-17,0.7c-9.1,0-18.2,0.1-27.3,0.2c-12.3,0.1-24.6,0.1-36.9,0.1
	c-2.6,0-5.2,0-7.9-0.1c-5.6-0.2-11.1-0.4-16.5-2.1c-3.1-1-6-2.2-8.3-4.4c-2.4-2.2-3.8-5-4.5-8.2c-0.9-4.2-0.8-8.5-0.2-12.7
	c0.7-5.5,2.5-10.8,4.1-16c0.5-1.6,0.8-3.2,1.2-4.8c0.2-0.8,0.7-1.5,0.9-2.2c4.1-12.3,8.2-24.6,12.4-36.9c0.4-1.2,0.8-2.4,1.3-3.6
	c14.6,0,29.1,0,43.8,0c-5.3,18.3-10.7,36.5-16,54.9c0.9,0.1,1.7,0.1,2.5,0.1c6.9,0,13.7,0,20.6,0c8.2,0,16.4,0.1,24.6,0.2
	c5.9,0,11.9,0.1,17.8,0.1c0.3,0,0.6,0,1-0.1c1.6-6.2,3.3-12.3,5-18.7c-14.4,0-28.6,0-43.1,0c3.2-12.4,6.7-24.4,10.5-36.3
	c4.1-0.6,8.1-0.4,12.1-0.4c4.2,0,8.4,0.1,12.5,0.1c6.4,0,12.8-0.1,19.2-0.1c6.6,0,13.2,0.4,19.6,1.8c3.3,0.7,6.6,1.6,9.5,3.4
	c3.5,2.1,6.2,4.9,7.3,9c0.6,2.3,0.6,4.6,0.3,6.9C380.3,120.8,378.9,125.2,377.8,129.7z"/>
<path class="st1" d="M443.8,150.6c15.7,0,31.3,0,47,0c1.6-6.2,3.2-12.3,4.9-18.6c-0.5-0.1-0.9-0.1-1.3-0.1c-6.9,0-13.7-0.1-20.6-0.1
	c-9.1,0-18.1,0-27.2,0c-7.9,0-15.8-0.1-23.7-0.2c-5.1-0.1-10.2-0.4-15.2-1.8c-2.7-0.7-5.3-1.8-7.6-3.5c-3.6-2.6-5.5-6.2-6.2-10.5
	c-0.7-4.7-0.2-9.3,0.7-13.9c0.4-2.2,1-4.3,1.5-6.6c0.6,0,1.2,0,1.8,0c23.2,0,46.5,0,69.7,0c15,0,29.9-0.1,44.9,0
	c5.3,0,10.5,0.4,15.7,1.7c3.3,0.9,6.5,2.1,9.3,4.2c4.6,3.6,6.9,8.2,6.3,14.2c-0.9,8.5-3.3,16.6-5.7,24.8c-1.7,5.8-3.6,11.6-5.6,17.3
	c-2,5.7-4.9,11-8.9,15.6c-3.6,4.1-8,7-13.1,8.9c-4.7,1.8-9.5,2.7-14.5,3.3c-5.2,0.6-10.3,0.7-15.5,0.7c-20,0-40,0-60,0
	c-1.6,0-3.2,0.2-4.8,0.2c-3.7-0.1-7.4-0.1-11.2-0.3c-4.3-0.2-8.6-0.7-12.8-1.8c-3.7-0.9-7.2-2.3-10.2-4.7c-3.4-2.7-5-6.3-5.2-10.6
	c-0.1-3.4,0.4-6.7,1.2-10c0.7-2.6,1.3-5.2,2-7.9c0.4,0,0.7-0.1,1-0.1c9.8-0.1,19.5-0.2,29.3-0.2
	C421.1,150.6,432.4,150.6,443.8,150.6z"/>
<path class="st0" d="M128.6,95.2c11.4,0,22.6,0.1,33.9,0.1c5.9,0,11.8-0.1,17.7-0.1c5.7,0.1,11.4,0.5,17,1.9
	c3.7,0.9,7.3,2.4,10.3,4.8c3.1,2.6,4.9,5.8,5.3,9.9c0.4,3.7-0.2,7.3-1.1,10.9c-2,7.7-4.1,15.3-6.3,23c-1.6,5.8-3.5,11.5-6.2,17
	c-3.6,7.5-8.7,13.7-16.1,17.8c-4.6,2.5-9.7,3.9-14.9,4.6c-5.7,0.8-11.5,0.9-17.3,0.9c-23.6,0-47.2,0-70.8,0
	c-5.6,0-11.2-0.2-16.7-1.2c-4.2-0.8-8.3-1.9-11.9-4.4c-3.7-2.6-5.7-6.2-6.3-10.7c-0.3-2.8,0-5.5,0.7-8.2c0.9-3.5,1.7-7,2.6-10.6
	c1.4-0.1,2.6-0.3,3.9-0.3c35.1,0,70.3,0,105.4,0c0.6,0,1.2,0,1.9,0c1.6-6.2,3.2-12.3,4.9-18.7c-1.6-0.1-3.1-0.2-4.6-0.2
	c-5.7-0.1-11.4-0.2-17.1-0.2c-7.6-0.1-15.1-0.1-22.7-0.1c-9.7,0-19.4,0.1-29,0.1c-5.6,0-11.3-0.5-16.6-2.4c-3.6-1.3-6.9-3.2-9.3-6.4
	c-1.7-2.3-2.5-4.9-2.8-7.7c-0.7-5.2-0.2-10.4,1.2-15.5c0.1-0.4,0.2-0.9,0.4-1.3c1-2.8,1-2.8,4-2.9c3-0.1,6-0.1,9.1-0.1
	C94.4,95.2,111.4,95.2,128.6,95.2z"/>
<path class="st1" d="M251.9,52.2c5.3-5,11.6-7.7,18.5-9.2c3.7-0.8,7.5-1.3,11.3-1.8c1-0.2,2-0.2,3-0.4c2.4-0.6,4.8-0.6,7.2-0.6
	c25.7,0,51.4,0,77.1,0c2.1,0,4.1,0.3,6.1,0.7c3.9,0.6,7.8,1.3,11.5,2.9c3.4,1.5,6.5,3.4,8.6,6.6c1.2,1.9,1.8,4,2.1,6.2
	c0.4,3.4-0.1,6.8-0.9,10.1c-0.7,2.9-1.5,5.8-2.2,8.9c-51.4,0-102.7,0-154.1,0C240.5,70.4,245.1,58.3,251.9,52.2z"/>
<path class="st0" d="M461.7,40.1c22.3,0,44.4,0,66.6,0c3.3,0,6.5,0.2,9.8,0.7c2.9,0.5,5.8,0.8,8.6,1.7c3.3,1,6.4,2.5,9,4.7
	c2.5,2.1,3.9,4.8,4.5,8c0.5,3.1,0.4,6.1-0.3,9.1c-0.8,3.7-1.7,7.4-2.6,11.2c-51.4,0-102.7,0-154.2,0c0-1.6,0.6-2.9,1.1-4.2
	c2.6-6.9,6.9-12.6,12.4-17.4c5.5-4.8,11.7-8.4,18.7-10.5c3.8-1.1,7.8-1.6,11.6-2.6c2.8-0.7,5.6-0.7,8.4-0.7
	C457.3,40.1,459.4,40.1,461.7,40.1z"/>
<path class="st1" d="M140.1,75.5c-18.5,0-36.9,0-55.2,0c-4.3,0-8.5-0.2-12.9-0.3c0-0.3,0-0.6,0.1-0.8c2.1-6.1,5.1-11.7,9.4-16.6
	c4.7-5.4,10.4-9.4,17-12.2c5.5-2.3,11.4-3.6,17.2-4.9c2.7-0.6,5.4-0.7,8.1-0.7c24.9,0,49.8,0,74.7,0c3.4,0,6.8,0.3,10.2,1.1
	c2.2,0.6,4.5,0.9,6.8,1.5c4.2,1,8,2.9,10.9,6.4c2.2,2.6,3,5.8,3.1,9.1c0.1,3.8-0.8,7.5-1.7,11.1c-0.4,1.8-0.9,3.6-1.4,5.4
	c-0.1,0.3-0.2,0.6-0.3,0.9C197.4,75.5,168.8,75.5,140.1,75.5z"/>
<path class="st2" d="M465.8,214.4c0.7-0.5,1.8-0.4,2.7-0.4c4.6,0,9.3,0,13.9,0c0.6,0,1.2,0.1,1.9,0.1c0,1.8,0,3.3,0,5.1
	c-2.1,0-4.1,0-6.2,0c0,0.7-0.1,1.1-0.1,1.6c0,4.4,0,8.8,0,13.3c0,1.6-0.1,1.7-1.7,1.7c-1.3,0-2.6,0-4.1-0.1c0-5.6,0-10.9,0-16.5
	c-1.6,0-3.1,0-4.6,0c-2,0-2.1-0.1-2.1-2.1"/>
<path class="st3" d="M520.2,217c1.6-3.7,1-3,4.4-3c1.1,0,2.2,0,3.4,0c0.5,0,1,0.1,1.6,0.2c0,7.2,0,14.3,0,21.5
	c-1.6,0.4-3.1,0.2-4.7,0.1c-0.9,0-0.9-0.8-0.9-1.5c0-2.3,0-4.7,0-7c0-1.5,0-3,0-4.4c-0.1,0-0.2,0-0.3-0.1c-0.2,0.5-0.5,1-0.7,1.6
	c-0.8,1.8-1.6,3.7-2.4,5.5c-0.4,0.9-0.9,1.3-1.9,1.2c-4.1-0.1-3,0.5-4.7-3.1c-0.8-1.8-1.6-3.7-2.5-5.5c0,0-0.1,0-0.3,0
	c0,0.5,0,1,0,1.5c0,3.4,0,6.7,0,10.1c0,1.7,0,1.7-1.8,1.8c-0.8,0-1.6,0-2.3,0c-1.3,0-1.4-0.1-1.4-1.4c0-2,0-3.9,0-5.9
	c0-4.3,0-8.5,0-12.8c0-1.8,0-1.8,1.8-1.8c1.7,0,3.4,0,5,0c1,0,1.6,0.3,2,1.3c0.9,2.3,1.9,4.5,2.8,6.8c0.1,0.3,0.3,0.6,0.5,1.2
	C518.5,221,519.3,219,520.2,217z"/>
<path class="st3" d="M144.4,230.1c-2.7-6-0.7-12.2,4.8-15.2c4.3-2.3,10.6-1.7,14.3,1.6c1.3,1.1,2.1,2.5,2.7,4.4
	c-1.7,0.8-3.5,1.1-5.3,1.6c-1.4-2.1-3.1-3.6-5.9-3.5c-1.7,0.1-3.1,0.7-4.3,2c-2.3,2.5-2,6.6,0.5,8.7c2.6,2.1,6.6,1.8,8.7-1
	c-1.4,0-2.6,0-3.9,0c-1.4,0-1.5-0.2-1.5-1.6c0-0.7,0-1.3,0-2c0-0.7,0.4-1,1.1-1c3.1,0,6.3,0,9.4,0c0.6,0,0.9,0.3,0.9,0.9
	c0,0.6,0,1.2,0,1.8c0,2.8,0,5.7,0,8.7c-1.6,0.5-3.1,0.4-4.6,0.1c-0.3-0.1-0.6-0.8-0.9-1.3c-2.7,2.1-6,2.2-9.3,1.4
	C148,234.9,145.9,233,144.4,230.1z"/>
<path class="st4" d="M284.5,220.6c-2.7-2.7-7.4-2.4-9.5,1.3c-1.7,3.1-0.4,6.4,1.8,7.9c2.7,1.8,6.3,1.4,8.3-1.3c-1.4,0-2.6,0-3.9,0
	c-1.3,0-1.6-0.2-1.6-1.6c0-1,0.1-2,0.2-2.9c2.8-0.3,9.9-0.2,11.2,0.2c0,3.7,0,7.4,0,11.1c-1.3,0.4-3.2,0.5-4.9,0.1
	c-0.1-0.4-0.2-0.8-0.2-1.3c-0.1,0-0.3,0-0.4,0.1c-5.4,4.2-16.2,1.3-17-8.4c-0.6-7.5,5.4-12.9,12.5-12.4c2.4,0.2,4.7,0.8,6.7,2.2
	c1.8,1.2,2.9,2.9,3.7,5c-1.8,0.9-3.6,1.2-5.4,1.6C285.4,221.8,285,221.2,284.5,220.6z"/>
<path class="st4" d="M87.8,214c0.5,0.6,1,1,1.3,1.6c1.8,3,3.6,6,5.4,9.1c0.1,0.2,0.3,0.4,0.7,0.5c0-0.5,0-1.1,0-1.6
	c0-2.7,0-5.4,0-8.1c0-1.4,0.2-1.6,1.7-1.6c1.3,0,2.5,0,3.9,0c0,7.3,0,14.4,0,21.7c-1.9,0.2-3.9,0.3-5.8-0.1
	c-0.6-0.1-1.1-0.9-1.5-1.5c-1.9-3-3.7-6.1-5.5-9.2c-0.2-0.4-0.5-0.7-0.9-1.3c0,0.7-0.1,1.1-0.1,1.6c0,3,0,5.9,0,8.9
	c0,1.5-0.2,1.7-1.8,1.7c-1.2,0-2.4,0-3.6,0c-0.4-1.3-0.5-19.5-0.2-21.6c0.1-0.1,0.3-0.2,0.4-0.2C83.8,214,85.7,214,87.8,214z"/>
<path class="st5" d="M110.4,230.4c3.6,0,7.1,0,10.6,0.1c0.2,0,0.4,0.2,0.7,0.3c0,1.5,0,3.1,0,4.8c-0.6,0.1-1.2,0.2-1.8,0.2
	c-4.8,0-9.5,0-14.3,0c-1.7,0-1.9-0.2-1.9-1.8c0-6.1,0-12.3,0-18.4c0-1.3,0.3-1.6,1.6-1.6c4.9,0,9.8,0,14.8,0c1.2,0,1.3,0.1,1.3,1.4
	c0,0.7,0,1.5,0,2.2c0,1.7,0,1.7-1.7,1.7c-2.9,0-5.8,0-8.7,0c-0.4,0-0.9,0-1.5,0c0,1,0,2,0,3.1c2.1,0,4.2,0,6.4,0
	c0.4,1.7,0.2,3.2,0.2,5c-2.2,0-4.4,0-6.7,0c0,0.9,0,1.6,0,2.4C109.3,230.3,109.7,230.4,110.4,230.4z"/>
<path class="st5" d="M502,230.4c1.5,0.2,1.7,0.3,1.8,1.4c0.1,0.9,0,1.8,0,2.7c0,0.7-0.3,1.3-1.2,1.3c-5.3,0-10.5,0-15.8,0
	c-0.3,0-0.5-0.1-0.9-0.2c0-0.5-0.1-0.9-0.1-1.3c0-6.2,0-12.3,0-18.5c0-1.8,0-1.8,1.8-1.8c4.7,0,9.4,0,14.1,0c1.7,0,1.8,0.1,1.8,1.8
	c0,0.7,0,1.3,0,2c0,1.3-0.2,1.4-1.5,1.4c-3.1,0-6.3,0-9.4,0c-0.3,0-0.6,0-1,0.1c0,1,0,1.9,0,3c1.2,0,2.4,0,3.5,0c3.4,0,3-0.4,3,3.1
	c0,0.6-0.1,1.2-0.1,1.9c-2.2,0-4.3,0-6.4,0c0,1,0,1.9,0,3c1.7,0.1,3.4,0,5.1,0C498.4,230.4,500.1,230.4,502,230.4z"/>
<path class="st3" d="M173.7,213.9c4.1,0,8,0,12,0c0.4,1.8,0.1,3.4,0.2,5.1c-3.9,0.3-7.8,0-11.7,0.2c0,1,0,1.9,0,3.1c1.6,0,3.3,0,5,0
	c1.6,0,1.6,0.1,1.6,1.6c0,0.7,0,1.5,0,2.2c-0.1,1.1-0.2,1.2-1.3,1.3c-1.5,0-2.9,0-4.4,0c-0.3,0-0.5,0-0.9,0c0,1,0,1.9,0,3
	c0.8,0,1.5,0,2.3,0c2.6,0,5.1,0,7.7,0c0.7,0,1.3,0.1,2,0.2c0,1.7,0,3.3,0,5c-0.5,0.1-1,0.2-1.5,0.2c-4.9,0-9.8,0-14.8,0
	c-1.5,0-1.6-0.2-1.6-1.7c0-6.1,0-12.3,0-18.4c0-1.6,0.2-1.7,1.7-1.7C171.2,213.9,172.4,213.9,173.7,213.9z"/>
<path class="st3" d="M542.4,228.1c-1.6-0.4-3.1-0.8-4.7-1.2c-0.7-0.2-1.4-0.3-2.1-0.6c-2.3-1-3.8-2.8-3.9-5.4
	c-0.1-2.5,0.8-4.6,3.1-5.9c4-2.3,8.1-2,12.1,0.1c0.3,0.2,0.7,0.4,0.9,0.7c1.1,1,1.1,1.6,0.2,2.7c-0.1,0.2-0.3,0.3-0.5,0.5
	c-1.9,1.9-1.9,1.9-4.2,0.7c-0.6-0.3-1.2-0.6-1.8-0.8c-0.6-0.2-1.2-0.2-1.8-0.2c-1,0.1-1.9,0.8-1.9,1.4c0.1,0.9,0.9,1.2,1.7,1.4
	c1.7,0.4,3.4,0.7,5,1.2c3.2,1,5.4,3.1,5,6.9c-0.3,3.1-2.2,5.1-4.9,5.9c-4.2,1.2-8.3,1-12-1.7c-0.4-0.3-0.8-0.6-1-1.1
	c-0.6-0.9-0.4-1.5,0.3-2.2c0.6-0.5,1.2-1,1.8-1.5c1.1-0.8,1.3-0.7,2.5,0.1c0.9,0.6,1.9,1.2,2.9,1.6c0.8,0.3,1.8,0.2,2.6,0.1
	c0.7-0.1,1.2-0.5,1.4-1.2C543.6,228.9,543.1,228.5,542.4,228.1z"/>
<path class="st3" d="M453.1,227c-1.8-0.3-3.4-0.9-4.6-2.1c-2.7-2.7-2.2-7.4,1-9.7c3.8-2.6,9.8-2.2,13.4,0.5c1.2,0.9,1.2,1.6,0.2,2.8
	c0,0-0.1,0.1-0.1,0.1c-2.3,2.3-2.2,2.5-4.7,0.9c-1.2-0.7-2.5-1.2-4-0.7c-0.7,0.2-1.3,0.5-1.3,1.3c0,0.7,0.6,1,1.2,1.2
	c1.3,0.3,2.7,0.6,4,1c1.4,0.5,2.9,0.9,4.1,1.7c3.3,2.4,2.7,7,0.8,9.2c-1.2,1.3-2.5,2.2-4.2,2.5c-4,0.7-7.8,0.5-11.2-2
	c-0.4-0.3-0.9-0.7-1.1-1.2c-0.3-0.7-0.4-1.4,0.4-1.9c0.7-0.5,1.4-1.1,2.1-1.6c0.9-0.6,1.3-0.6,2.2,0.2c1.1,1,2.4,1.6,3.9,1.8
	c0.7,0.1,1.3,0,2-0.2c0.7-0.2,1.3-0.7,1.2-1.4c-0.1-0.5-0.6-1.1-1.1-1.3c-0.8-0.4-1.8-0.5-2.7-0.8
	C454.1,227.2,453.7,227.1,453.1,227z"/>
<path class="st3" d="M411.4,229.1c0.9-0.7,1.6-0.6,2.3,0.1c1.2,1.1,2.7,1.8,4.4,1.8c1.2,0,2.3-0.3,2.8-1.7c-0.4-1-1.3-1.3-2.2-1.6
	c-1.2-0.3-2.4-0.5-3.6-0.8c-1.5-0.3-2.9-0.9-4-1.9c-2.6-2.4-2.5-6.9,0.1-9.2c2.6-2.3,5.7-2.6,9-2.2c1.7,0.2,3.2,0.8,4.6,1.8
	c1.7,1.2,1.8,1.8,0.4,3.3c-2.1,2.1-2.1,2.1-4.7,0.7c-1.3-0.7-2.6-1-4-0.5c-0.6,0.2-1.1,0.6-1.1,1.3c0,0.6,0.4,1,1,1.2
	c1.3,0.3,2.6,0.6,3.9,0.9c1.1,0.3,2.3,0.6,3.3,1.1c4.1,1.9,4.2,7,2,9.7c-1.1,1.4-2.6,2.3-4.3,2.7c-3.4,0.7-6.8,0.6-9.9-1.1
	c-0.8-0.4-1.5-1-2.1-1.6c-0.9-0.9-0.8-1.6,0.1-2.4C410,230.1,410.7,229.6,411.4,229.1z"/>
<path class="st4" d="M248.9,219.2c-1.1-0.7-2.1-0.7-3.2-0.5c-0.7,0.2-1.5,0.5-1.5,1.4c0,0.8,0.7,1.1,1.4,1.3
	c1.2,0.3,2.5,0.6,3.7,0.9c1.6,0.4,3.2,0.9,4.6,2c2.5,2.2,2.8,6.3,0.5,8.9c-1.7,1.9-3.8,2.9-6.3,3c-2.8,0.1-5.5,0-7.9-1.5
	c-0.8-0.5-1.6-1.1-2.2-1.8c-0.7-0.8-0.6-1.3,0.2-2c0.6-0.6,1.3-1.2,2-1.7c1-0.7,1.4-0.7,2.3,0.1c1.1,1,2.4,1.7,3.9,1.7
	c0.8,0,1.7-0.1,2.4-0.4c1.1-0.5,1.1-1.6,0.1-2.2c-0.5-0.3-1.1-0.5-1.7-0.7c-1.5-0.4-2.9-0.6-4.4-1c-2.7-0.8-4.5-2.5-4.7-5.6
	c-0.2-2.2,0.5-4.1,2.2-5.5c4-3.3,10.7-2.4,13.6,0.1c0.3,0.2,0.5,0.4,0.7,0.7c0.5,0.6,0.5,1.2,0,1.8c-0.6,0.7-1.2,1.3-1.9,1.9
	c-0.7,0.6-1.4,0.6-2.1,0.1C250.1,219.8,249.5,219.6,248.9,219.2z"/>
<path class="st3" d="M59.9,229.8c-0.7,3.8-3.2,5.6-6.6,6.1c-2.8,0.5-5.7,0.4-8.4-0.9c-0.9-0.5-1.9-1.1-2.6-1.8
	c-1.2-1.1-1.1-1.8,0.1-2.8c0.5-0.5,1.1-0.9,1.7-1.4c1-0.7,1.4-0.8,2.4,0c1.2,1,2.6,1.8,4.2,1.8c0.7,0,1.5-0.1,2.1-0.4
	c0.4-0.2,0.7-0.7,0.8-1.2c0.1-0.5-0.2-1-0.7-1.2c-1.5-0.4-3.1-0.9-4.7-1.3c-1.6-0.4-3-1-4.3-2c-2.5-2.1-2.2-6.6-0.3-8.6
	c1.8-1.9,4-2.7,6.6-2.8c2.8-0.1,5.4,0.5,7.7,2.1c1.3,0.9,1.4,1.7,0.3,2.8c-0.4,0.4-0.8,0.9-1.3,1.3c-0.8,0.9-1.3,0.9-2.4,0.4
	c-0.9-0.5-1.8-1-2.7-1.3c-1-0.4-2-0.3-2.9,0.2c-1,0.5-1.1,1.5-0.2,2.1c0.5,0.3,1,0.4,1.6,0.6c1.9,0.5,3.9,1,5.8,1.6
	C58.9,224.2,60.3,227,59.9,229.8z"/>
<path class="st3" d="M225.8,213.5c3.1,0,5.8,0.5,8.2,2.4c1.6,1.2,2.7,2.8,3.3,4.9c-1.7,0.8-3.5,1-5.3,1.6c-0.3-0.4-0.6-0.7-0.9-1.1
	c-1.7-2.3-3.9-3.1-6.4-2.1c-2.4,0.9-3.9,3.2-3.8,5.9c0.1,2.7,1.8,5.5,5.6,5.8c1.8,0.1,3.3-0.7,4.4-2.2c1-1.4,1-1.4,2.7-0.9
	c1.2,0.3,2.4,0.7,3.7,1.1c-1.1,3.6-3.4,5.7-6.7,6.7c-4.7,1.4-9.8,0.6-13.3-3.7c-4.6-5.7-2.7-15.7,6.4-18
	C224.3,213.7,225,213.6,225.8,213.5z"/>
<path class="st3" d="M68.7,219.5c0.4,0.6,0.7,1.1,1.1,1.8c1.1-2.1,2.2-4,3.2-5.9c0.5-1.1,1.2-1.6,2.5-1.5c1.1,0.1,2.1,0,3.2,0
	c0.5,0,0.9,0.2,1.6,0.4c-0.4,0.8-0.6,1.4-0.9,2c-2.1,3.6-4.1,7.2-6.2,10.7c-0.4,0.8-0.7,1.5-0.6,2.4c0,2,0,4,0,6.2
	c-1.7,0.4-3.3,0.2-4.9,0.1c-0.7,0-0.8-0.6-0.8-1.3c0-1.7,0-3.5,0-5.2c0-0.9-0.2-1.7-0.7-2.5c-2-3.5-4-6.9-6.1-10.4
	c-0.1-0.1-0.1-0.2-0.2-0.3c-0.8-1.3-0.6-2.3,1.2-2.1c1.2,0.1,2.3,0,3.5,0c0.8,0,1.3,0.3,1.7,1.1C67,216.5,67.8,217.9,68.7,219.5z"/>
<path class="st3" d="M434,229.8c0.1-1.3-0.3-2.2-0.8-3.1c-2.1-3.5-4-6.9-6.1-10.4c-0.1-0.2-0.3-0.5-0.4-0.7c-0.4-0.9,0-1.5,1-1.5
	c1.2,0,2.5,0.1,3.7,0c1.1-0.1,1.8,0.4,2.2,1.3c1,2,2.1,3.9,3.3,6.2c0.9-1.7,1.7-3.1,2.5-4.6c1.5-2.9,1.5-2.9,4.6-2.9
	c0.6,0,1.2,0,1.8,0c1.2,0.1,1.5,0.5,0.9,1.6c-1,1.9-2.1,3.7-3.1,5.5c-1.1,2-2.3,4-3.4,5.9c-0.4,0.7-0.6,1.4-0.6,2.2c0,1.7,0,3.4,0,5
	c0,1.3-0.2,1.5-1.4,1.5c-1.3,0-2.7,0-4.2,0C433.9,233.7,434,231.8,434,229.8z"/>
<path class="st4" d="M189.5,219.2c-0.9,0-1.6-0.1-2.4-0.1c0-1.7,0-3.3,0-5c3-0.3,6.1-0.1,9.1-0.2c3.1,0,6.1,0,9.3,0
	c0,1.8,0,3.4,0,5.2c-2.1,0-4.1,0-6.2,0c0,5.6,0,10.9,0,16.5c-2,0.3-3.8,0.2-5.7,0.1c-0.3-1.9-0.1-3.6-0.2-5.4c0-1.8,0-3.7,0-5.5
	c0-1.8,0-3.6,0-5.5C192.1,219.2,190.9,219.2,189.5,219.2z"/>
<path class="st3" d="M299,215.9c0,4.8,0,9.5,0,14.3c0.5,0,1,0.1,1.4,0.1c2.3,0,4.7,0,7,0c2.1,0,2.2,0.1,2.2,2.1c0,0.7,0,1.5,0,2.2
	c0,0.7-0.3,1-1,1.1c-0.3,0-0.6,0-0.8,0c-4.2,0-8.4,0-12.6,0c-1.8,0-1.9-0.1-1.9-1.9c0-6,0-12,0-17.9c0-1.9,0.1-2,2-2
	c1.2,0,2.3,0,3.6,0C299,214.7,299,215.2,299,215.9z"/>
<path class="st4" d="M382.2,222.9c0,2.5,0,4.9,0,7.3c0.5,0,0.9,0.1,1.3,0.1c2.4,0,4.8,0,7.2,0c0.6,0,1.2,0.1,1.9,0.2
	c0,1.7,0,3.2,0,5c-0.5,0.1-0.9,0.2-1.4,0.2c-4.4,0-8.7,0-13.1,0c-1.5,0-1.6-0.2-1.6-1.7c0-6.2,0-12.3,0-18.5c0-1.6,0.2-1.7,1.8-1.7
	c0.9,0,1.8,0,2.7,0c1.1,0,1.2,0.2,1.3,1.3C382.2,217.7,382.2,220.3,382.2,222.9z"/>
<path class="st3" d="M212.2,213.9c0.4,0.2,0.7,0.4,0.8,0.6c0.1,0.4,0,0.8,0,1.2c0,6,0,12.1,0,18.1c0,0.5,0,1,0,1.6
	c-1.7,0.5-3.4,0.3-5,0.1c-0.3,0-0.5-0.5-0.7-0.8c-0.1-0.3,0-0.7,0-1c0-6,0-12,0-17.9c0-1.9,0.1-2,2-2
	C210.3,213.9,211.1,213.9,212.2,213.9z"/>
<path class="st4" d="M350.9,224.3c-0.2-0.1-0.3-0.3-0.4-0.4c0.6-0.6,1.1-1.2,1.6-1.9c0.6-1.5,0.8-2.9,0.2-4.3
	c-0.9-2.1-2.6-3.3-4.8-3.4c-4-0.2-7.9-0.2-11.9-0.3c-0.9,0-1.2,0.4-1.2,1.2c0,6.4,0,12.8,0,19.1c0,1.2,0.2,1.4,1.3,1.4
	c3.9,0,7.7,0,11.6-0.1c1.5,0,2.9-0.7,4.1-1.7C354.2,231.8,354.9,226.4,350.9,224.3z M344.9,218.5c1,0,1.8,0.8,1.9,1.8
	c0.1,0.8-0.6,1.7-1.5,1.9c-0.5,0.1-1.1,0.1-1.7,0.1c-1.1,0-2.1,0-3.2,0c0,0,0-0.1,0-0.1c0,0-0.1,0-0.1,0c-0.1-1.2-0.1-2.3-0.1-3.7
	C341.8,218.5,343.4,218.5,344.9,218.5z M346,231.1c-0.5,0.1-1,0.2-1.5,0.2c-1.2,0-2.3,0-3.5,0c-0.6,0-0.9-0.2-0.9-0.9
	c0-0.1,0-0.1,0-0.2c0,0,0,0,0,0c0-0.8,0-1.6,0-2.4c0-0.4,0-0.8,0-1.2c1.9,0,3.7-0.1,5.5,0c1.1,0.1,1.9,0.9,2,1.9
	C347.8,229.9,347.3,230.7,346,231.1z"/>
<path class="st4" d="M332,221c-1.6-4.9-6.3-7.8-11.5-7.5c-4.8,0.2-8.4,2.4-10.4,6.9c-1.7,3.9-1.1,9.4,3,12.9
	c2.6,2.3,5.5,2.9,8.8,2.8C329.1,235.8,334.7,228.8,332,221z M321.4,230.8c-2.8,0.2-5.1-1.4-5.9-4c-0.1-0.4-0.2-0.8-0.3-1.3
	c-0.2-3.8,2-6.1,4.8-6.5c0.2,0,0.4,0,0.5-0.1c2.8-0.2,5.8,1.5,6.2,5.7C326.9,227.1,325.1,230.5,321.4,230.8z"/>
<path class="st4" d="M142.5,234.2c-0.7-1.2-1.5-2.3-2.3-3.5c-0.7-1.2-1.5-2.3-2.2-3.5c0.2-0.2,0.3-0.3,0.4-0.3
	c2.6-1.2,4.1-4.6,3.4-7.6c-0.6-2.3-2.5-5-6-5.1c-3.7-0.2-7.5-0.2-11.2-0.2c-0.8,0-1.1,0.4-1.2,1.1c0,0.4,0,0.8,0,1.2
	c0,5.2,0,10.4,0,15.8c0,0.9,0,1.7,0,2.5c0,0.6,0.2,1.2,0.9,1.2c1.5,0.1,3.1,0,4.9,0c0-2.7,0-5.2,0-7.6c0.5,0,0.8,0,1.1-0.1
	c1.2-0.2,2,0.2,2.7,1.4c1,1.8,2.2,3.5,3.2,5.3c0.4,0.6,0.8,1,1.6,1c1.3,0,2.7,0.1,4,0C142.8,235.7,143.1,235.2,142.5,234.2z
	 M134.6,223.2c-0.3,0.1-0.6,0.2-0.9,0.3c0,0-0.1,0-0.1,0c0,0,0,0,0,0c-1,0-2,0-3,0c-0.4,0-0.9,0-1.3,0c0-1.5,0-2.9,0-4.6
	c1.6-0.1,3.3-0.2,5,0c1,0.1,1.7,1.1,1.8,1.9C136.2,221.9,135.6,222.7,134.6,223.2z"/>
<path class="st3" d="M375.1,234.6c-0.1-0.4-0.2-0.9-0.3-1.3c-0.6-1.8-1.3-3.7-2-5.7c-1.4-4-2.7-7.9-4-11.9c-0.6-1.8-0.6-1.8-2.6-1.8
	c-1.3,0-2.6,0-3.9,0c-2,0-1.9,0-2.6,1.9c-1.8,5.2-3.5,10.3-5.3,15.5c-0.3,0.8-0.6,1.7-0.8,2.5c-0.4,1.5-0.2,1.8,1.3,1.9
	c1,0,1.9,0,2.9,0c0.9,0,1.5-0.2,1.7-1.2c0.2-1.1,0.7-2.1,1-3.2c2.5,0,5,0,7.5,0c0.3,1.1,0.7,2.2,1,3.2c0.2,0.5,0.3,1.1,1,1.1
	c1.5,0,2.9,0,4.4,0C375,235.7,375.2,235.2,375.1,234.6z M364.9,226.4c-0.1,0-0.1,0-0.2,0c-1,0-1.8,0-2.8,0c0.7-2.3,1.4-4.5,2-6.6
	c0.1,0,0.2,0,0.3,0c0.6,2.1,1.3,4.2,2,6.5C365.7,226.3,365.3,226.3,364.9,226.4z"/>
</svg>
